<svg id="Lager_1" data-name="Lager 1" xmlns="http://www.w3.org/2000/svg" viewBox="0 0 845.07 862.7"><defs><style>.cls-1{fill:#e8d949;}</style></defs><title>icon</title><path class="cls-1" d="M1227.1,231.41C1086.57-39.31,693.08-56,553,135.29c18.08-12.54,35.54-26.13,54.35-37.48C745.53,14.46,887.75-1,1030,84c139.37,83.29,207.53,207.05,200.13,372.3C1222,637.6,1083.27,791.83,907.15,809.67c-201,20.35-358.25-85.51-405.51-273-44.46-176.4,72.35-369,247.93-408.78,186-42.15,357.65,74.49,389.19,264.39,25.54,153.81-92.18,308.15-253.36,332.18-139.61,20.81-277.64-88-299.29-236-18.39-125.59,65.43-241.69,198-274.27C884.27,189.58,997,253.07,1035.4,355.7,1091,504.31,974.12,652.61,820.16,628.85,731.59,615.18,663.26,524.09,676.25,437c12.93-86.74,84.87-142.7,170.09-132.29,56.38,6.89,107.51,58.46,114.25,115.22,5.52,46.51-29.8,100.81-76.09,116.42-41.88,14.12-81.06,4.42-100.75-33.12-9-17.12-10.09-41.4-6.6-63.26a51.57,51.57,0,0,1,2.76-13c.59-2.3,1.16-4.63,1.85-6.8.89-2.83,3.28-5.69,6.55-8.41a51.93,51.93,0,1,1,45,84.11c17.39,11.81,35.39,11.34,53-8.32,18.27-20.38,30.11-59.55,24.26-85.68C900.34,356,859,341.17,812.83,345.56c-54.8,5.2-84.26,40-94.57,89.44C706.32,492.21,730.44,537.59,778,570.11c42.51,29.1,120,25.78,164-5.91,64.7-46.66,85.83-132.09,51.14-206.84-38.25-82.42-126.7-124.7-212.42-101.52C665.43,287,601.72,396,630.8,512.36c28.94,115.8,150.49,192.71,266.91,168.87,121.12-24.81,215.37-145.22,207-264.4-9.21-130.37-115.68-242.66-241.84-255-157.14-15.43-290,79.15-325.31,231.55C503.66,539.58,591.61,700.87,734.17,754c133.1,49.56,287.87,9.81,376.37-96.66,93.8-112.87,108.21-275.21,35.76-403.2-73.19-129.32-234.71-211-368.93-186.53C572.14,105,421.92,285.36,438.11,475c19.26,225.58,196.09,392.5,413.75,395.2C1128.27,873.59,1401.58,567.51,1227.1,231.41Z" transform="translate(-436.91 -7.48)"/></svg>