<svg id="Lager_1" data-name="Lager 1" xmlns="http://www.w3.org/2000/svg" viewBox="0 0 972.54 197.3"><defs><style>.cls-1{fill:#fff;}.cls-2{fill:#e8d949;}</style></defs><title>logo_white2</title><path class="cls-1" d="M266.28,44.57H240.13v113.5h18.78V110c7.35-.19,12.89-.87,16.92-2.06,4.63-1.37,8.52-4.69,11.55-9.84s4.44-11.91,4.44-20.48C291.82,55.68,283.23,44.57,266.28,44.57Zm6.08,33c0,6.91-1.18,11.66-3.41,13.75-2,1.89-5.39,3-10,3.19V59.87c5.18.23,8.67,1.36,10.4,3.38C270.7,64.88,272.36,68.69,272.36,77.6Z" transform="translate(-1.69 -2.37)"/><path class="cls-1" d="M323.17,44.57l-24.5,113.5h18.21l4.06-21.66h19.85l4,21.66h18.39L338.51,44.57Zm14.91,76.75H323.79l6.94-39.65Z" transform="translate(-1.69 -2.37)"/><path class="cls-1" d="M412.49,93.4c-5.58-6.74-9.18-11.66-10.73-14.63a17.37,17.37,0,0,1-2.2-7.88,11.6,11.6,0,0,1,3.5-8.56c4.83-4.88,11.69-4.6,20.46.1L426.46,64V47.47l-1.12-.55a37.53,37.53,0,0,0-16.52-4.07c-7.93,0-14.5,2.74-19.51,8.12s-7.5,12.35-7.5,20.81a34.61,34.61,0,0,0,2.94,14.78,66.62,66.62,0,0,0,8.76,13.32L403.38,112a72.77,72.77,0,0,1,7.49,10.43,16,16,0,0,1,1.88,7.65,13.12,13.12,0,0,1-3.6,9.61,12.16,12.16,0,0,1-9.19,3.69,17.06,17.06,0,0,1-7.23-1.75,36.29,36.29,0,0,1-5.15-2.72,4,4,0,0,0-1-.5l-2.63-.88v17.27l1.24.51c6.51,2.67,12.15,4,16.74,4,8.44,0,15.38-2.77,20.65-8.22s7.91-12.58,7.91-21.22a35.4,35.4,0,0,0-4.79-18.4A151,151,0,0,0,412.49,93.4Z" transform="translate(-1.69 -2.37)"/><polygon class="cls-1" points="446.11 58.67 462.78 58.67 462.78 155.7 481.56 155.7 481.56 58.67 498.32 58.67 498.32 42.2 446.11 42.2 446.11 58.67"/><path class="cls-1" d="M536.42,44.57l-24.49,113.5h18.2l4.06-21.66h19.86l4,21.66h18.4L551.77,44.57Zm14.92,76.75H537.05L544,81.68Z" transform="translate(-1.69 -2.37)"/><path class="cls-1" d="M658.87,44.57H632.72v113.5H651.5V110c7.35-.19,12.9-.87,16.92-2.06,4.63-1.37,8.52-4.69,11.55-9.84s4.45-11.91,4.45-20.48C684.42,55.68,675.82,44.57,658.87,44.57Zm6.08,33c0,8.73-1.86,12.3-3.41,13.75-2,1.89-5.39,3-10,3.19V59.87c5.18.23,8.67,1.36,10.4,3.38C663.29,64.88,665,68.69,665,77.6Z" transform="translate(-1.69 -2.37)"/><polygon class="cls-1" points="725.25 42.2 706.46 42.2 706.46 155.7 750.08 155.7 750.08 139.41 725.25 139.41 725.25 42.2"/><path class="cls-1" d="M796.53,44.57,772,158.07h18.2l4.06-21.66h19.86l4,21.66h18.4L811.87,44.57Zm14.91,76.75H797.15l6.94-39.64Z" transform="translate(-1.69 -2.37)"/><path class="cls-1" d="M890.26,42.68c-9.77,0-18.18,4.36-25,13s-10.11,24.52-10.11,48.72c0,22.42,3.35,36.85,10.22,44.13s15,10.86,24.36,10.86a32.46,32.46,0,0,0,14.1-3.38l1.13-.54V138.18l-2.78,1.18a26.38,26.38,0,0,1-9.79,2.5,13.9,13.9,0,0,1-10.66-4.49c-2.91-3.09-4.8-7.36-5.63-12.7a166.67,166.67,0,0,1-1.3-23.65c0-16.65,1.93-27.86,5.74-33.31,5.63-8.07,12.71-9.6,21.69-6L905,62.75v-18l-1.55-.35A61.13,61.13,0,0,0,890.26,42.68Z" transform="translate(-1.69 -2.37)"/><polygon class="cls-1" points="947.52 139.58 947.52 105.85 970.04 105.85 970.04 89.39 947.52 89.39 947.52 58.67 971.84 58.67 971.84 42.2 928.91 42.2 928.91 155.7 972.53 155.7 972.53 139.58 947.52 139.58"/><path class="cls-2" d="M182.41,53.58C150.27-8.33,60.28-12.17,28.23,31.6c4.14-2.87,8.13-6,12.43-8.57C72.27,4,104.8.43,137.33,19.87,169.2,38.92,184.79,67.22,183.1,105c-1.86,41.46-33.59,76.73-73.86,80.81-46,4.66-81.94-19.56-92.75-62.44C6.33,83,33,39,73.2,29.9c42.53-9.64,81.79,17,89,60.46,5.84,35.18-21.09,70.48-57.95,76-31.93,4.76-63.5-20.13-68.45-54-4.2-28.73,15-55.28,45.29-62.73C104,44,129.79,58.53,138.57,82c12.71,34-14,67.9-49.23,62.47-20.26-3.13-35.88-24-32.91-43.89S75.84,68,95.33,70.34c12.89,1.57,24.59,13.37,26.13,26.35,1.26,10.63-6.82,23-17.4,26.62-9.58,3.23-18.54,1-23-7.57-2.05-3.92-2.3-9.47-1.51-14.47a11.81,11.81,0,0,1,.64-3c.13-.53.26-1.06.42-1.55a4.45,4.45,0,0,1,1.5-1.93,11.88,11.88,0,1,1,10.29,19.24c4,2.7,8.1,2.59,12.13-1.9,4.18-4.66,6.89-13.62,5.55-19.6-2.35-10.48-11.8-13.87-22.37-12.86C75.13,80.87,68.39,88.84,66,100.14,63.3,113.23,68.82,123.6,79.69,131c9.72,6.66,27.45,5.9,37.5-1.35,14.8-10.67,19.63-30.21,11.7-47.3-8.75-18.86-29-28.52-48.58-23.22C54,66.29,39.38,91.23,46,117.83s34.42,44.08,61.05,38.62c27.7-5.67,49.25-33.21,47.33-60.47C152.3,66.17,128,40.49,99.1,37.65c-35.94-3.53-66.33,18.11-74.4,53C17,124.06,37.07,161,69.67,173.09c30.44,11.33,65.84,2.24,86.08-22.11a82,82,0,0,0,8.18-92.21c-16.74-29.58-53.68-48.25-84.38-42.66C32.62,24.66-1.74,65.92,2,109.28c4.41,51.59,44.85,89.77,94.63,90.38C159.81,200.45,222.32,130.45,182.41,53.58Z" transform="translate(-1.69 -2.37)"/></svg>