<svg id="Lager_1" data-name="Lager 1" xmlns="http://www.w3.org/2000/svg" viewBox="0 0 1308.21 986.84"><defs><style>.cls-1{fill:#fff;}.cls-2{fill:#e8d949;}</style></defs><title>logo_white</title><path class="cls-1" d="M49.74,789.76H3.14V992H36.6V906.33c13.1-.34,23-1.55,30.16-3.67,8.25-2.45,15.18-8.35,20.59-17.54,5.25-8.94,7.91-21.22,7.91-36.5C95.26,809.56,80,789.76,49.74,789.76Zm10.83,58.86c0,12.32-2.1,20.79-6.07,24.51-3.6,3.37-9.61,5.27-17.9,5.69V817c9.23.4,15.46,2.43,18.54,6C57.62,826,60.57,832.75,60.57,848.62Z" transform="translate(-3.14 -7.48)"/><path class="cls-1" d="M151.12,789.76,107.46,992h32.45l7.23-38.6h35.39l7.13,38.6h32.79l-44-202.26Zm26.57,136.78H152.22l12.38-70.66Z" transform="translate(-3.14 -7.48)"/><path class="cls-1" d="M310.3,876.78c-9.94-12-16.37-20.77-19.12-26.06-2.6-5-3.93-9.75-3.93-14.05a20.74,20.74,0,0,1,6.25-15.26c8.59-8.69,20.83-8.19,36.45.18l5.24,2.81V794.93l-2-1a67,67,0,0,0-29.45-7.25c-14.13,0-25.83,4.87-34.76,14.48s-13.37,22-13.37,37.07c0,10.08,1.76,19,5.24,26.34,3.37,7.18,8.62,15.17,15.61,23.74L294.07,910c6.44,7.87,10.93,14.13,13.33,18.6a28.45,28.45,0,0,1,3.36,13.63c0,7.07-2.1,12.67-6.42,17.13s-9.65,6.57-16.36,6.57a30.32,30.32,0,0,1-12.89-3.11c-5.8-2.72-8.13-4.1-9.18-4.86a7.13,7.13,0,0,0-1.77-.88l-4.69-1.57v30.78l2.21.9c11.62,4.75,21.66,7.16,29.84,7.16,15,0,27.41-4.93,36.81-14.65s14.08-22.41,14.08-37.81c0-12.25-2.87-23.28-8.54-32.79C328.44,900,320.52,889.12,310.3,876.78Z" transform="translate(-3.14 -7.48)"/><polygon class="cls-1" points="370.08 811.62 399.79 811.62 399.79 984.54 433.26 984.54 433.26 811.62 463.13 811.62 463.13 782.28 370.08 782.28 370.08 811.62"/><path class="cls-1" d="M531.16,789.76,487.5,992h32.44l7.24-38.6h35.39L569.7,992h32.79l-44-202.26Zm26.57,136.78H532.26l12.38-70.65Z" transform="translate(-3.14 -7.48)"/><path class="cls-1" d="M749.36,789.76h-46.6V992h33.47V906.33c13.1-.34,23-1.55,30.15-3.67,8.26-2.45,15.19-8.36,20.59-17.54,5.26-8.94,7.92-21.22,7.92-36.5C794.89,809.56,779.57,789.76,749.36,789.76Zm10.83,58.86c0,15.56-3.3,21.92-6.07,24.51-3.6,3.37-9.6,5.27-17.89,5.69V817c9.23.4,15.45,2.43,18.53,6C757.24,826,760.19,832.74,760.19,848.62Z" transform="translate(-3.14 -7.48)"/><polygon class="cls-1" points="867.53 782.28 834.06 782.28 834.06 984.54 911.79 984.54 911.79 955.51 867.53 955.51 867.53 782.28"/><path class="cls-1" d="M994.68,789.76,951,992h32.44l7.23-38.6h35.4l7.13,38.6H1066l-44-202.26Zm26.57,136.78H995.78l12.38-70.65Z" transform="translate(-3.14 -7.48)"/><path class="cls-1" d="M1161.71,786.39c-17.4,0-32.39,7.78-44.53,23.12s-18,43.7-18,86.83c0,39.94,6,65.66,18.2,78.62s26.74,19.36,43.41,19.36a57.78,57.78,0,0,0,25.13-6l2-1V956.57l-5,2.11c-7,3-12.84,4.47-17.45,4.47a24.72,24.72,0,0,1-19-8c-5.19-5.51-8.56-13.13-10-22.63-1.55-10-2.33-24.22-2.33-42.15,0-29.68,3.44-49.65,10.24-59.36,10-14.38,22.64-17.11,38.64-10.77l4.88,1.93v-32l-2.77-.63A109.09,109.09,0,0,0,1161.71,786.39Z" transform="translate(-3.14 -7.48)"/><polygon class="cls-1" points="1263.64 955.82 1263.64 895.7 1303.77 895.7 1303.77 866.37 1263.64 866.37 1263.64 811.62 1306.98 811.62 1306.98 782.28 1230.48 782.28 1230.48 984.54 1308.21 984.54 1308.21 955.82 1263.64 955.82"/><path class="cls-2" d="M933.77,177.74c-106.86-205.83-406-218.57-512.58-73.08,13.75-9.54,27-19.87,41.32-28.5C567.61,12.79,675.74,1,783.88,65.67,889.85,129,941.67,223.1,936.05,348.75c-6.17,137.84-111.65,255.1-245.56,268.66-152.83,15.48-272.39-65-308.32-207.59C348.36,275.7,437.17,129.27,570.68,99,712.07,67,842.62,155.65,866.59,300,886,417,796.51,534.34,674,552.6c-106.14,15.83-211.1-66.92-227.56-179.41-14-95.49,49.75-183.77,150.56-208.54C673.1,145.93,758.82,194.21,788,272.25c42.26,113-46.59,225.75-163.66,207.68C557,469.54,505.06,400.28,514.93,334c9.83-66,64.53-108.5,129.33-100.58,42.86,5.23,81.74,44.44,86.86,87.6,4.2,35.36-22.65,76.65-57.85,88.52-31.84,10.74-61.63,3.36-76.6-25.18-6.83-13-7.68-31.48-5-48.1a38.77,38.77,0,0,1,2.1-9.91c.45-1.75.88-3.52,1.4-5.17.68-2.15,2.5-4.33,5-6.4a39.48,39.48,0,1,1,34.22,64c13.23,9,26.91,8.62,40.32-6.33,13.89-15.49,22.89-45.28,18.44-65.15-7.81-34.85-39.22-46.1-74.34-42.77-41.67,4-64.07,30.45-71.91,68-9.08,43.5,9.27,78,45.4,102.73,32.33,22.13,91.27,19.6,124.68-4.5,49.2-35.47,65.26-100.43,38.89-157.26-29.09-62.67-96.34-94.81-161.51-77.19-87.63,23.68-136.07,106.58-114,195,22,88.05,114.43,146.52,202.94,128.4,92.09-18.86,163.76-110.42,157.35-201-7-99.12-87.95-184.5-183.87-193.92C537.31,113.07,436.27,185,409.44,300.86,383.7,412.06,450.57,534.7,559,575.06c101.2,37.68,218.88,7.46,286.17-73.5,71.32-85.81,82.27-209.25,27.19-306.56C816.68,96.67,693.87,34.58,591.81,53.17c-156,28.43-270.26,165.6-257.95,309.76C348.51,534.44,483,661.35,648.46,663.41,858.62,666,1066.43,433.29,933.77,177.74Z" transform="translate(-3.14 -7.48)"/></svg>